<?xml version="1.0" encoding="UTF-8" standalone="no"?>
<svg
   xmlns:dc="http://purl.org/dc/elements/1.1/"
   xmlns:cc="http://creativecommons.org/ns#"
   xmlns:rdf="http://www.w3.org/1999/02/22-rdf-syntax-ns#"
   xmlns:svg="http://www.w3.org/2000/svg"
   xmlns="http://www.w3.org/2000/svg"
   viewBox="0 0 129.5298 105.69394"
   height="27.964851mm"
   width="34.271427mm"
   id="svg7248"
   version="1.1">
  <metadata
     id="metadata7254">
    <rdf:RDF>
      <cc:Work
         rdf:about="">
        <dc:format>image/svg+xml</dc:format>
        <dc:type
           rdf:resource="http://purl.org/dc/dcmitype/StillImage" />
        <dc:title></dc:title>
      </cc:Work>
    </rdf:RDF>
  </metadata>
  <defs
     id="defs7252" />
  <g
     transform="translate(-85.22714,177.08452)"
     style="display:inline"
     id="layer8">
    <path
       d="m 49.335938,39.330078 c -4.361591,0 -5.451172,1.089582 -5.451172,5.451172 0,4.36159 1.089582,5.453125 5.451172,5.453125 4.36159,0 5.453124,-1.091535 5.453124,-5.453125 0,-4.36159 -1.091534,-5.451172 -5.453124,-5.451172 z m 19.626953,0 c -4.36159,0 -5.451172,1.089582 -5.451172,5.451172 0,4.36159 1.089582,5.453125 5.451172,5.453125 4.36159,0 5.453125,-1.091535 5.453125,-5.453125 0,-4.36159 -1.091535,-5.451172 -5.453125,-5.451172 z M 49.335938,58.957031 c -4.361591,0 -5.451172,1.089582 -5.451172,5.451172 0,4.36159 1.089582,5.453125 5.451172,5.453125 4.36159,0 5.453124,-1.091535 5.453124,-5.453125 0,-4.36159 -1.091534,-5.451172 -5.453124,-5.451172 z m 19.626953,0 c -4.36159,0 -5.451172,1.089582 -5.451172,5.451172 0,4.36159 1.089582,5.453125 5.451172,5.453125 4.36159,0 5.453125,-1.091535 5.453125,-5.453125 0,-4.36159 -1.091535,-5.451172 -5.453125,-5.451172 z"
       style="display:inline;fill:#2d5016;stroke-width:2.18079495"
       transform="translate(85.227741,-177.08452)"
       id="path7278" />
    <path
       d="m 48.277344,0 c -0.73602,0 -1.3256,1.7173963 -1.3125,3.8164062 0.01629,2.4035701 8.462546,9.4677818 22.816406,19.0820318 l 22.791016,15.265624 0.08203,17.992188 c 0.04473,9.89536 0.700984,17.990234 1.458984,17.990234 0.75803,0 7.01496,-1.751346 11.05469,-4.248046 7.09079,-4.382351 5.01367,-5.309469 5.01367,-18.667969 0,-10.38986 0.79808,-14.013539 3.20117,-14.542969 C 116.1069,36.08734 52.066454,0 48.277344,0 Z"
       style="display:inline;fill:#03b0de;stroke-width:2.18079495"
       transform="translate(85.227741,-177.08452)"
       id="path7284" />
    <path
       d="m 30.523438,34.414062 c -1.48164,0.491211 -4.126256,2.294355 -6.728516,4.083985 -1.58293,1.0886 -2.984072,2.355166 -4.044922,3.416015 C 15.28527,46.092273 10.633559,50.602116 7.2480469,55.947266 4.3944599,60.452606 2.1662221,65.22149 0.97070312,70 c -0.74343599,2.97153 -1.08896687,5.947518 -0.93554687,8.865234 0.132334,2.516715 0.63484945,4.990861 1.57031255,7.382813 1.1718079,2.996279 3.0233293,5.863567 5.6777343,8.525391 2.38701,2.20216 4.7017269,4.303536 7.5683589,5.560542 22.54852,9.88749 47.191451,4.45831 67.9375,-3.132808 8.80452,-3.831644 14.553546,-5.671859 26.388668,-14.982422 11.83513,-9.310564 18.96094,-24.474609 18.96094,-24.474609 0,0 1.73733,-3.284332 1.32813,-3.519532 -0.29677,-0.17058 -2.0169,1.774878 -4.93164,5.267579 -0.85335,1.022559 -2.21639,2.583752 -3.70313,4.226562 -1.28279,1.41745 -2.6571,2.895335 -3.87695,4.140625 -1.03176,1.05327 -2.12555,2.045609 -3.2168,3.037109 -0.77922,0.708 -1.80909,1.687089 -2.75781,2.480469 -0.68159,0.56999 -1.78081,1.426089 -2.10547,1.636719 -1.77778,1.15339 -3.99795,2.690473 -6.11133,3.839844 -2.40051,1.305523 -4.848192,2.398572 -7.433592,3.455078 -3.62534,1.481473 -7.439052,2.764971 -11.351562,3.80664 -3.83821,1.021888 -7.769905,1.812411 -11.708985,2.328125 -3.23335,0.423318 -6.473287,0.661466 -9.667969,0.69336 -4.524698,0.04517 -8.961621,-0.325696 -13.175781,-1.175781 -3.93955,-0.794692 -7.683853,-2.007192 -11.121093,-3.69336 -1.754751,-0.860806 -3.429846,-1.84509 -5.009766,-2.958984 -1.65076,-1.163842 -3.19824,-2.46999 -4.625,-3.925782 -2.42778,-2.477186 -3.839885,-5.546694 -4.521484,-8.953124 -0.524232,-2.619962 -0.615977,-5.431704 -0.404297,-8.339844 0.21169,-2.90814 0.730728,-5.914593 1.423828,-8.876953 1.4265,-6.09699 3.593677,-12.041519 5.355469,-16.798829 z"
       style="display:inline;fill:#06669c;fill-opacity:0.98356024;stroke-width:2.18079495"
       transform="translate(85.227741,-177.08452)"
       id="path7280" />
    <flowRoot
       xml:space="preserve"
       id="flowRoot4631"
       style="font-style:normal;font-weight:normal;font-size:13.33333302px;line-height:1.25;font-family:sans-serif;letter-spacing:0px;word-spacing:0px;fill:#000000;fill-opacity:1;stroke:none"
       transform="translate(85.227741,-177.08452)"><flowRegion
         id="flowRegion4633"><rect
           id="rect4635"
           width="79.534798"
           height="19.009691"
           x="135.25287"
           y="73.57428" /></flowRegion><flowPara
         id="flowPara4637"></flowPara></flowRoot>    <flowRoot
       xml:space="preserve"
       id="flowRoot4639"
       style="font-style:normal;font-weight:normal;font-size:13.33333302px;line-height:1.25;font-family:sans-serif;letter-spacing:0px;word-spacing:0px;fill:#000000;fill-opacity:1;stroke:none"
       transform="translate(85.227741,-177.08452)"><flowRegion
         id="flowRegion4641"><rect
           id="rect4643"
           width="84.34185"
           height="19.009691"
           x="134.16035"
           y="71.389252" /></flowRegion><flowPara
         id="flowPara4645"></flowPara></flowRoot>    <path
       id="path4555"
       d=""
       style="display:inline;opacity:0.03999999;fill:#3b6f59;fill-opacity:1;stroke-width:0.37802368" />
  </g>
</svg>
