<?xml version="1.0" encoding="UTF-8" standalone="no"?>
<svg
   xmlns:dc="http://purl.org/dc/elements/1.1/"
   xmlns:cc="http://creativecommons.org/ns#"
   xmlns:rdf="http://www.w3.org/1999/02/22-rdf-syntax-ns#"
   xmlns:svg="http://www.w3.org/2000/svg"
   xmlns="http://www.w3.org/2000/svg"
   viewBox="0 0 299.14054 105.69411"
   height="27.964897mm"
   width="79.147591mm"
   id="svg7248"
   version="1.1">
  <metadata
     id="metadata7254">
    <rdf:RDF>
      <cc:Work
         rdf:about="">
        <dc:format>image/svg+xml</dc:format>
        <dc:type
           rdf:resource="http://purl.org/dc/dcmitype/StillImage" />
        <dc:title></dc:title>
      </cc:Work>
    </rdf:RDF>
  </metadata>
  <defs
     id="defs7252" />
  <g
     transform="translate(-85.227741,177.08452)"
     style="display:inline"
     id="layer8">
    <g
       style="display:inline"
       id="g4849">
      <path
         d="m 134.56434,-137.75473 c -4.36159,0 -5.45199,1.0904 -5.45199,5.45199 0,4.36159 1.0904,5.45199 5.45199,5.45199 4.36159,0 5.45199,-1.0904 5.45199,-5.45199 0,-4.36159 -1.0904,-5.45199 -5.45199,-5.45199 z m 19.62716,0 c -4.36159,0 -5.45199,1.0904 -5.45199,5.45199 0,4.36159 1.0904,5.45199 5.45199,5.45199 4.36159,0 5.45198,-1.0904 5.45198,-5.45199 0,-4.36159 -1.09039,-5.45199 -5.45198,-5.45199 z m -19.62716,19.62716 c -4.36159,0 -5.45199,1.0904 -5.45199,5.45199 0,4.36159 1.0904,5.45198 5.45199,5.45198 4.36159,0 5.45199,-1.09039 5.45199,-5.45198 0,-4.36159 -1.0904,-5.45199 -5.45199,-5.45199 z m 19.62716,0 c -4.36159,0 -5.45199,1.0904 -5.45199,5.45199 0,4.36159 1.0904,5.45198 5.45199,5.45198 4.36159,0 5.45198,-1.09039 5.45198,-5.45198 0,-4.36159 -1.09039,-5.45199 -5.45198,-5.45199 z"
         style="display:inline;fill:#2d5016;stroke-width:2.18079495"
         id="path7278" />
      <path
         id="path7284"
         d="m 177.88165,-120.92903 -0.0813,-17.99158 -22.79114,-15.26556 c -14.35386,-9.61425 -22.80071,-16.67839 -22.817,-19.08196 -0.0131,-2.09901 0.57634,-3.81639 1.31236,-3.81639 3.78911,0 67.82939,36.08808 65.1053,36.68824 -2.40309,0.52943 -3.20047,4.15264 -3.20047,14.5425 0,13.3585 2.07751,14.28597 -5.01328,18.66832 -4.03973,2.4967 -10.29688,4.24799 -11.05491,4.24799 -0.758,0 -1.41479,-8.0962 -1.45952,-17.99156 z"
         style="display:inline;fill:#03b0de;stroke-width:2.18079495" />
      <path
         id="path7280"
         style="display:inline;fill:#06669c;fill-opacity:0.98356024;stroke-width:2.18079495"
         d="m 115.75041,-142.67037 c -1.48164,0.49121 -4.12533,2.29436 -6.72759,4.08399 -1.58293,1.0886 -2.98482,2.35513 -4.04567,3.41598 -4.46473,4.17821 -9.116504,8.68867 -12.502016,14.03382 -2.853587,4.50534 -5.081977,9.27438 -6.277496,14.05289 -0.743436,2.97153 -1.087461,5.94672 -0.934041,8.864436 0.132334,2.516715 0.634776,4.990667 1.570239,7.382619 1.171808,2.996279 3.023083,5.86389 5.677488,8.525712 2.38701,2.20216 4.700383,4.303501 7.567016,5.560515 22.54852,9.887489 47.1927,4.458447 67.93875,-3.132675 8.80452,-3.831644 14.55373,-5.67132 26.38886,-14.981883 11.83513,-9.310564 18.95965,-24.474654 18.95965,-24.474654 0,0 1.73723,-3.28563 1.32803,-3.52083 -0.29677,-0.17058 -2.01551,1.77604 -4.93025,5.26874 -0.85335,1.02256 -2.21611,2.58381 -3.70285,4.22662 -1.28279,1.41745 -2.6579,2.89562 -3.87775,4.14091 -1.03176,1.05327 -2.12483,2.04528 -3.21608,3.03678 -0.77922,0.708 -1.81052,1.68702 -2.75924,2.4804 -0.68159,0.56999 -1.77995,1.42512 -2.10461,1.63575 -1.77778,1.15339 -3.99745,2.690518 -6.11083,3.839889 -2.40051,1.305523 -4.8481,2.399569 -7.4335,3.456075 -3.62534,1.481473 -7.4403,2.76479 -11.35281,3.806459 -3.83821,1.021888 -7.77031,1.811219 -11.70939,2.326933 -3.23335,0.423318 -6.4714,0.662278 -9.66608,0.694172 -4.5247,0.04517 -8.96241,-0.325023 -13.17657,-1.175108 -3.93955,-0.79469 -7.68373,-2.008763 -11.12097,-3.694931 -1.75475,-0.860806 -3.4295,-1.84465 -5.00942,-2.958544 -1.65076,-1.163842 -3.19798,-2.469658 -4.62474,-3.925449 -2.42778,-2.477186 -3.84031,-5.547486 -4.52191,-8.953916 -0.52423,-2.61996 -0.61663,-5.43134 -0.40495,-8.33948 0.21169,-2.90814 0.73057,-5.91388 1.42367,-8.87624 1.4265,-6.09699 3.59327,-12.04167 5.35506,-16.79898 z" />
      <text
         xml:space="preserve"
         style="font-style:normal;font-weight:normal;font-size:114.16997528px;line-height:1.25;font-family:sans-serif;letter-spacing:0px;word-spacing:0px;display:inline;fill:#05669c;fill-opacity:0.98431373;stroke:none;stroke-width:1.78390586"
         x="212.85413"
         y="-70.82444"
         id="text4551"
         transform="scale(0.89875046,1.1126559)"><tspan
           id="tspan4549"
           x="212.85413"
           y="-70.82444"
           style="font-style:normal;font-variant:normal;font-weight:bold;font-stretch:normal;font-size:21.4068718px;font-family:Z003;-inkscape-font-specification:Z003;opacity:0.03999999;fill:#05669c;fill-opacity:0.98431373;stroke-width:1.78390586">Provides software solutions</tspan></text>
      <text
         id="text4617"
         y="-101.1301"
         x="217.62392"
         style="font-style:normal;font-variant:normal;font-weight:bold;font-stretch:normal;font-size:27.46593094px;line-height:1.25;font-family:C059;-inkscape-font-specification:'C059 Bold';letter-spacing:0px;word-spacing:0px;fill:#05669c;fill-opacity:0.98431373;stroke:none;stroke-width:2.05994487"
         xml:space="preserve"><tspan
           style="font-style:italic;font-variant:normal;font-weight:bold;font-stretch:normal;font-size:38.45230103px;font-family:C059;-inkscape-font-specification:'C059 Bold Italic';fill:#05669c;fill-opacity:0.98431373;stroke-width:2.05994487"
           y="-101.1301"
           x="217.62392"
           id="tspan4615">S</tspan></text>
      <text
         id="text4621"
         y="-100.9653"
         x="242.46571"
         style="font-style:normal;font-variant:normal;font-weight:bold;font-stretch:normal;font-size:27.46593094px;line-height:1.25;font-family:C059;-inkscape-font-specification:'C059 Bold';letter-spacing:0px;word-spacing:0px;fill:#05669c;fill-opacity:0.98431373;stroke:none;stroke-width:2.05994487"
         xml:space="preserve"><tspan
           style="font-style:italic;font-variant:normal;font-weight:bold;font-stretch:normal;font-family:C059;-inkscape-font-specification:'C059 Bold Italic';stroke-width:2.05994487"
           y="-100.9653"
           x="242.46571"
           id="tspan4619">OFT</tspan></text>
      <text
         id="text4625"
         y="-100.55331"
         x="303.59576"
         style="font-style:normal;font-variant:normal;font-weight:bold;font-stretch:normal;font-size:27.46593094px;line-height:1.25;font-family:C059;-inkscape-font-specification:'C059 Bold';letter-spacing:0px;word-spacing:0px;fill:#05669c;fill-opacity:0.98431373;stroke:none;stroke-width:2.05994487"
         xml:space="preserve"><tspan
           style="font-style:italic;font-variant:normal;font-weight:bold;font-stretch:normal;font-size:38.45230103px;font-family:C059;-inkscape-font-specification:'C059 Bold Italic';fill:#05669c;fill-opacity:0.98431373;stroke-width:2.05994487"
           y="-100.55331"
           x="303.59576"
           id="tspan4623">H</tspan></text>
      <text
         id="text4629"
         y="-100.55331"
         x="335.16287"
         style="font-style:normal;font-variant:normal;font-weight:bold;font-stretch:normal;font-size:27.46593094px;line-height:1.25;font-family:C059;-inkscape-font-specification:'C059 Bold';letter-spacing:0px;word-spacing:0px;fill:#05669c;fill-opacity:0.98431373;stroke:none;stroke-width:2.05994487"
         xml:space="preserve"><tspan
           style="font-style:italic;font-variant:normal;font-weight:bold;font-stretch:normal;font-family:C059;-inkscape-font-specification:'C059 Bold Italic';stroke-width:2.05994487"
           y="-100.55331"
           x="335.16287"
           id="tspan4627">EM</tspan></text>
      <flowRoot
         transform="translate(85.227741,-177.08452)"
         style="font-style:normal;font-weight:normal;font-size:13.33333302px;line-height:1.25;font-family:sans-serif;letter-spacing:0px;word-spacing:0px;fill:#000000;fill-opacity:1;stroke:none"
         id="flowRoot4631"
         xml:space="preserve"><flowRegion
           id="flowRegion4633"><rect
             y="73.57428"
             x="135.25287"
             height="19.009691"
             width="79.534798"
             id="rect4635" /></flowRegion><flowPara
           id="flowPara4637"></flowPara></flowRoot>      <flowRoot
         transform="translate(85.227741,-177.08452)"
         style="font-style:normal;font-weight:normal;font-size:13.33333302px;line-height:1.25;font-family:sans-serif;letter-spacing:0px;word-spacing:0px;fill:#000000;fill-opacity:1;stroke:none"
         id="flowRoot4639"
         xml:space="preserve"><flowRegion
           id="flowRegion4641"><rect
             y="71.389252"
             x="134.16035"
             height="19.009691"
             width="84.34185"
             id="rect4643" /></flowRegion><flowPara
           id="flowPara4645"></flowPara></flowRoot>      <path
         style="display:inline;opacity:0.03999999;fill:#3b6f59;fill-opacity:1;stroke-width:0.37802368"
         d="m 257.56796,-134.24281 c 5.2e-4,-11.75936 0.0699,-13.27219 0.66154,-14.43253 1.08183,-2.12161 2.4287,-2.86205 5.20606,-2.86205 2.70021,0 3.23321,0.31346 2.95343,1.73696 -0.18081,0.91999 -0.30252,0.97037 -1.95952,0.81116 -1.37777,-0.13239 -1.97293,-0.003 -2.70333,0.58865 -0.83041,0.67243 -0.95236,1.10548 -1.07562,3.81963 l -0.13901,3.06122 h 2.68619 2.68619 v 1.32309 1.32308 h -2.64616 -2.64617 v 8.88356 8.88355 h -1.51209 -1.5121 z"
         id="path4553" />
      <path
         style="display:inline;opacity:0.03999999;fill:#3b6f59;fill-opacity:1;stroke-width:0.37802368"
         d=""
         id="path4555" />
    </g>
  </g>
</svg>
